P3
60 60
255
0 0 0 0 0 0 0 0 0 0 0 0 0 0 0 0 0 0 0 0 0 0 0 0 
0 0 0 0 0 0 0 0 0 0 0 0 0 0 0 0 0 0 0 0 0 0 0 0 
0 0 0 0 0 0 0 0 0 0 0 0 0 0 0 0 14 20 2 44 57 10 78 90 
8 97 114 3 120 136 2 130 145 2 141 155 5 153 169 5 153 169 5 153 169 5 153 169 
2 141 155 2 130 145 3 120 136 8 97 114 10 78 90 2 44 57 0 19 23 0 0 0 
0 0 0 0 0 0 0 0 0 0 0 0 0 0 0 0 0 0 0 0 0 0 0 0 
0 0 0 0 0 0 0 0 0 0 0 0 0 0 0 0 0 0 0 0 0 0 0 0 
0 0 0 0 0 0 0 0 0 0 0 0 
0 0 0 0 0 0 0 0 0 0 0 0 0 0 0 0 0 0 0 0 0 0 0 0 
0 0 0 0 0 0 0 0 0 0 0 0 0 0 0 0 0 0 0 0 0 0 0 0 
0 0 0 0 0 0 0 0 0 0 59 68 8 97 114 2 130 145 5 153 169 9 171 190 
7 178 201 7 180 203 6 182 204 5 183 204 4 185 204 4 186 205 4 186 205 4 186 205 
4 186 205 4 186 204 4 184 203 4 183 201 4 174 191 4 163 179 2 130 145 8 97 114 
0 59 68 0 0 0 0 0 0 0 0 0 0 0 0 0 0 0 0 0 0 0 0 0 
0 0 0 0 0 0 0 0 0 0 0 0 0 0 0 0 0 0 0 0 0 0 0 0 
0 0 0 0 0 0 0 0 0 0 0 0 
0 0 0 0 0 0 0 0 0 0 0 0 0 0 0 0 0 0 0 0 0 0 0 0 
0 0 0 0 0 0 0 0 0 0 0 0 0 0 0 0 0 0 0 0 0 0 0 0 
0 14 20 0 59 68 3 120 136 12 163 180 13 170 198 10 175 201 9 177 203 9 177 202 
10 175 201 8 176 193 11 163 191 14 155 179 9 147 163 9 147 163 9 147 163 9 147 163 
4 163 179 4 174 191 5 178 197 4 183 201 4 184 203 4 186 204 4 184 203 5 178 197 
4 163 179 2 130 145 0 59 68 0 14 20 0 0 0 0 0 0 0 0 0 0 0 0 
0 0 0 0 0 0 0 0 0 0 0 0 0 0 0 0 0 0 0 0 0 0 0 0 
0 0 0 0 0 0 0 0 0 0 0 0 
0 0 0 0 0 0 0 0 0 0 0 0 0 0 0 0 0 0 0 0 0 0 0 0 
0 0 0 0 0 0 0 0 0 0 0 0 0 0 0 0 0 0 0 19 23 10 60 76 
12 122 149 11 163 191 13 172 201 12 173 202 13 170 198 11 163 191 9 147 163 9 107 131 
19 79 107 11 60 67 24 38 50 25 29 38 22 27 33 22 27 33 22 27 33 22 27 33 
25 29 38 24 38 50 27 60 78 17 95 107 11 118 135 4 163 179 8 176 193 4 183 201 
4 186 204 4 184 203 4 174 191 2 130 145 10 60 76 0 19 23 0 0 0 0 0 0 
0 0 0 0 0 0 0 0 0 0 0 0 0 0 0 0 0 0 0 0 0 0 0 0 
0 0 0 0 0 0 0 0 0 0 0 0 
0 0 0 0 0 0 0 0 0 0 0 0 0 0 0 0 0 0 0 0 0 0 0 0 
0 0 0 0 0 0 0 0 0 0 0 0 0 0 0 2 44 57 11 118 135 14 155 179 
15 170 201 13 171 201 11 163 191 19 142 158 9 107 131 27 60 78 22 17 21 22 17 21 
22 21 23 22 21 25 22 21 27 22 23 28 23 24 29 23 25 32 25 26 33 25 26 33 
23 25 32 23 24 29 22 21 25 22 17 21 22 17 21 22 21 27 10 78 90 11 118 135 
5 153 169 5 180 198 4 186 204 4 186 204 4 163 179 2 130 145 2 44 57 0 0 0 
0 0 0 0 0 0 0 0 0 0 0 0 0 0 0 0 0 0 0 0 0 0 0 0 
0 0 0 0 0 0 0 0 0 0 0 0 
0 0 0 0 0 0 0 0 0 0 0 0 0 0 0 0 0 0 0 0 0 0 0 0 
0 0 0 0 0 0 0 0 0 0 4 7 10 78 90 21 139 171 18 164 200 17 168 202 
17 163 191 13 129 151 10 78 90 24 38 50 22 23 29 22 21 27 22 23 28 23 24 29 
26 27 35 31 32 42 35 36 48 38 39 53 40 41 55 41 42 57 41 42 57 41 42 57 
41 42 57 41 42 57 39 40 54 38 38 51 33 34 45 29 30 39 23 24 29 22 27 33 
15 44 58 17 95 107 9 147 163 4 183 201 4 186 204 4 183 201 4 163 179 10 78 90 
0 4 7 0 0 0 0 0 0 0 0 0 0 0 0 0 0 0 0 0 0 0 0 0 
0 0 0 0 0 0 0 0 0 0 0 0 
0 0 0 0 0 0 0 0 0 0 0 0 0 0 0 0 0 0 0 0 0 0 0 0 
0 0 0 0 0 0 1 30 42 8 97 114 18 158 192 19 165 201 18 164 200 21 139 171 
19 79 107 25 29 38 22 23 29 22 23 28 23 25 32 25 29 38 33 34 45 40 41 55 
43 44 60 44 45 61 44 45 61 44 45 61 44 45 61 44 45 61 44 45 61 44 45 61 
44 45 61 44 45 61 44 45 61 44 45 61 44 45 61 43 44 60 42 43 58 35 36 48 
29 30 39 26 27 35 24 38 50 20 97 117 4 163 179 4 183 201 4 186 204 4 174 191 
9 107 131 1 30 42 0 0 0 0 0 0 0 0 0 0 0 0 0 0 0 0 0 0 
0 0 0 0 0 0 0 0 0 0 0 0 
0 0 0 0 0 0 0 0 0 0 0 0 0 0 0 0 0 0 0 0 0 0 0 0 
0 0 0 2 38 46 11 118 135 18 158 192 20 163 200 21 154 191 23 105 137 15 44 58 
22 17 21 22 23 28 23 25 32 31 32 42 38 39 53 42 43 58 44 45 61 44 45 61 
44 45 61 44 45 61 44 45 61 44 45 61 44 45 61 44 45 61 44 45 61 44 45 61 
44 45 61 44 45 61 44 45 61 44 45 61 44 45 61 44 45 61 44 45 61 44 45 61 
43 44 60 40 41 55 35 36 48 25 23 30 27 60 78 13 129 151 5 178 197 4 186 204 
5 178 197 2 130 145 2 38 46 0 0 0 0 0 0 0 0 0 0 0 0 0 0 0 
0 0 0 0 0 0 0 0 0 0 0 0 
0 0 0 0 0 0 0 0 0 0 0 0 0 0 0 0 0 0 0 0 0 0 0 0 
1 30 42 12 122 149 21 160 198 22 161 200 23 149 182 19 79 107 25 29 38 22 23 27 
23 24 29 29 30 39 39 40 54 43 44 59 44 45 61 44 45 61 44 45 61 44 45 61 
44 45 61 44 45 61 44 45 61 44 45 61 44 45 61 44 45 61 44 45 61 44 45 61 
44 45 61 44 45 61 44 45 61 44 45 61 44 45 61 44 45 61 44 45 61 44 45 61 
44 45 61 44 45 61 43 44 60 41 42 57 35 36 48 24 38 50 9 107 131 4 174 191 
4 186 204 4 183 201 2 141 155 1 30 42 0 0 0 0 0 0 0 0 0 0 0 0 
0 0 0 0 0 0 0 0 0 0 0 0 
0 0 0 0 0 0 0 0 0 0 0 0 0 0 0 0 0 0 0 0 0 2 38 46 
12 122 149 24 158 201 24 158 201 21 139 171 27 60 78 22 21 27 22 23 28 26 27 35 
35 36 48 43 44 60 44 45 61 44 45 61 44 45 61 44 45 61 44 45 61 44 45 61 
44 45 61 44 45 61 44 45 61 44 45 61 44 45 61 44 45 61 44 45 61 44 45 61 
44 45 61 44 45 61 44 45 61 44 45 61 44 45 61 44 45 61 44 45 61 44 45 61 
44 45 61 44 45 61 44 45 61 44 45 61 44 44 60 41 40 55 30 29 39 17 95 107 
4 163 179 4 186 204 4 184 203 2 141 155 2 38 46 0 0 0 0 0 0 0 0 0 
0 0 0 0 0 0 0 0 0 0 0 0 
0 0 0 0 0 0 0 0 0 0 0 0 0 0 0 0 0 0 1 30 42 23 105 137 
27 153 199 26 156 199 25 130 163 30 52 68 22 21 27 22 23 28 31 32 42 40 41 55 
44 45 61 44 45 61 44 45 61 44 45 61 44 45 61 44 45 61 44 45 61 44 45 61 
44 45 61 44 45 61 44 45 61 44 45 61 44 45 61 44 45 61 44 45 61 44 45 61 
44 45 61 44 45 61 44 45 61 44 45 61 44 45 61 44 45 61 44 45 61 44 45 61 
44 45 61 44 45 61 44 44 59 44 42 58 40 64 80 39 90 114 32 95 115 20 97 117 
9 107 131 4 163 179 4 186 204 4 183 201 2 130 145 1 30 42 0 0 0 0 0 0 
0 0 0 0 0 0 0 0 0 0 0 0 
0 0 0 0 0 0 0 0 0 0 0 0 0 0 0 0 4 7 8 97 114 26 146 191 
26 156 199 27 130 170 30 52 68 22 23 28 23 24 29 33 34 45 42 43 58 44 45 61 
44 45 61 44 45 61 44 45 61 44 45 61 44 45 61 44 45 61 44 45 61 44 45 61 
44 45 61 44 45 61 44 45 61 44 45 61 44 45 61 44 45 61 44 45 61 44 45 61 
44 45 61 44 45 61 44 45 61 44 45 61 44 45 61 44 45 61 44 45 61 44 45 61 
44 45 61 43 50 67 39 90 114 19 142 158 9 171 190 8 176 193 8 176 193 5 178 197 
4 174 191 5 178 197 4 186 204 4 186 204 5 178 197 9 107 131 0 4 7 0 0 0 
0 0 0 0 0 0 0 0 0 0 0 0 
0 0 0 0 0 0 0 0 0 0 0 0 0 0 0 13 62 94 26 146 191 27 153 199 
27 141 180 27 60 78 22 21 27 23 24 29 33 34 45 43 44 59 44 45 61 44 45 61 
44 45 61 44 45 61 44 45 61 44 45 61 44 45 61 44 45 61 44 45 61 44 45 61 
44 45 61 44 45 61 44 45 61 44 45 61 44 45 61 44 45 61 44 45 61 44 45 61 
44 45 61 44 45 61 44 45 61 44 45 61 44 45 61 44 45 61 44 45 61 44 45 62 
41 67 92 19 142 158 5 178 197 4 184 203 4 186 204 4 186 204 4 186 204 4 186 204 
4 186 204 4 186 204 4 186 204 4 186 204 4 186 204 4 174 191 10 78 90 0 0 0 
0 0 0 0 0 0 0 0 0 0 0 0 
0 0 0 0 0 0 0 0 0 0 0 0 2 44 57 27 130 170 27 153 199 30 142 191 
19 79 107 22 21 27 23 24 29 35 36 48 43 44 60 44 45 61 44 45 61 44 45 61 
44 45 61 44 45 61 44 45 61 44 45 61 44 45 61 44 45 61 44 45 61 44 45 61 
44 45 61 44 45 61 44 45 61 44 45 61 44 45 61 44 45 61 44 45 61 44 45 61 
44 45 61 44 45 61 44 45 61 44 45 61 44 45 61 44 45 61 44 45 61 39 90 114 
14 155 179 4 184 203 4 185 204 4 186 204 4 186 204 4 186 204 4 186 204 4 186 204 
4 186 204 4 186 204 4 186 204 4 186 204 4 186 204 4 186 204 4 163 179 2 44 57 
0 0 0 0 0 0 0 0 0 0 0 0 
0 0 0 0 0 0 0 0 0 0 19 23 23 105 137 30 148 198 30 148 198 23 105 137 
25 29 38 23 24 29 33 34 45 43 44 59 44 45 61 44 45 61 44 45 61 44 45 61 
44 45 61 44 45 61 44 45 61 44 45 61 44 45 61 44 45 61 44 45 61 44 45 61 
44 45 61 44 45 61 44 45 61 44 45 61 44 45 61 44 45 61 44 45 61 44 45 61 
44 45 61 44 45 61 44 45 61 44 45 61 44 45 61 44 43 60 32 95 115 11 163 191 
6 182 204 5 183 204 5 183 204 4 185 204 4 186 204 4 186 204 4 186 204 4 186 204 
4 186 204 4 186 204 4 186 204 4 186 204 4 186 204 4 186 204 4 183 201 2 130 145 
0 19 23 0 0 0 0 0 0 0 0 0 
0 0 0 0 0 0 0 0 0 10 60 76 29 132 179 31 150 199 27 130 170 15 44 58 
22 23 28 29 30 39 42 43 58 44 45 61 44 45 61 44 45 61 44 45 61 44 45 61 
44 45 61 44 45 61 44 45 61 44 45 61 44 45 61 44 45 61 44 45 61 44 45 61 
44 45 61 43 48 64 40 64 80 41 67 92 39 64 86 41 52 68 44 45 61 44 45 61 
44 45 61 44 45 61 44 45 61 44 45 61 44 45 61 34 78 98 17 163 191 7 180 203 
7 180 203 6 182 204 5 183 204 5 183 204 4 185 204 4 186 204 4 186 204 4 186 204 
4 186 204 4 186 204 4 186 204 4 186 204 4 186 204 4 186 204 4 186 204 4 163 179 
10 60 76 0 0 0 0 0 0 0 0 0 
0 0 0 0 0 0 0 14 20 26 112 145 33 147 200 30 142 191 27 65 95 22 21 23 
26 27 35 40 41 55 44 45 61 44 45 61 44 45 61 44 45 61 44 45 61 44 45 61 
44 45 61 44 45 61 44 45 61 44 45 61 44 45 61 44 45 61 44 45 61 44 44 60 
33 87 101 34 119 155 27 141 180 23 149 182 23 149 182 25 130 163 39 90 114 44 44 60 
44 45 61 44 45 61 44 45 61 44 45 61 40 64 80 21 139 171 9 177 202 8 179 203 
7 180 203 7 180 203 6 182 204 5 183 204 5 183 204 4 186 205 5 178 197 12 163 180 
5 153 169 5 153 169 4 163 179 5 180 198 4 186 205 4 186 204 4 186 204 4 186 204 
2 130 145 0 14 20 0 0 0 0 0 0 
0 0 0 0 0 0 11 46 65 34 140 191 33 147 200 26 112 145 25 29 38 23 24 29 
37 38 52 44 45 61 44 45 61 44 45 61 44 45 61 44 45 61 44 45 61 44 45 61 
44 45 61 44 45 61 44 45 61 44 45 61 44 45 61 44 45 61 43 45 60 38 92 127 
21 154 191 18 164 200 18 166 202 17 168 202 17 168 202 16 168 201 21 154 191 39 90 114 
44 45 61 44 45 61 44 45 61 44 45 62 27 107 126 13 170 198 9 177 203 9 177 203 
8 179 203 8 179 203 7 180 203 6 182 204 6 180 201 9 147 163 17 95 107 27 60 78 
30 52 68 30 52 68 27 60 78 17 95 107 4 163 179 4 184 203 4 186 204 4 186 204 
4 174 191 0 59 68 0 0 0 0 0 0 
0 0 0 0 0 0 23 105 137 35 144 198 34 140 191 27 65 95 22 23 29 31 32 42 
43 44 59 44 45 61 44 45 61 44 45 61 44 45 61 44 45 61 44 45 61 44 45 61 
44 45 61 44 45 61 44 45 61 44 45 61 44 45 61 44 44 60 33 87 101 21 154 191 
20 163 200 20 163 202 18 166 202 18 166 202 18 166 202 17 168 202 16 169 202 21 139 171 
42 57 78 44 45 61 44 45 61 40 64 80 14 155 179 11 176 203 11 176 203 9 177 203 
9 177 203 8 179 203 8 179 203 9 171 190 9 107 131 26 32 42 22 23 28 22 23 28 
23 24 29 23 25 32 23 25 32 23 25 32 11 60 67 9 147 163 4 184 203 4 186 204 
4 184 203 2 130 145 0 0 0 0 0 0 
0 0 0 2 44 57 29 132 179 36 143 199 37 120 163 24 38 50 23 25 32 39 40 54 
44 45 61 44 45 61 44 45 61 44 45 61 44 45 61 44 45 61 44 45 61 44 45 61 
44 45 61 44 45 61 44 45 61 44 45 61 44 45 61 43 48 64 34 119 155 22 161 200 
20 163 200 20 163 202 20 163 202 18 166 202 18 166 202 18 166 202 16 169 202 21 139 171 
40 64 80 44 45 61 44 44 59 35 110 137 13 172 201 12 175 203 12 175 203 9 177 203 
9 177 203 9 177 203 9 171 190 20 97 117 22 25 29 22 23 28 23 24 29 31 32 42 
35 36 48 38 39 53 39 40 54 38 39 53 33 34 45 30 52 68 5 153 169 4 186 204 
4 186 204 4 163 179 0 59 68 0 0 0 
0 0 0 19 79 107 34 140 191 36 143 199 34 119 155 24 38 50 29 30 39 43 44 60 
44 45 61 44 45 61 44 45 61 44 45 61 44 45 61 44 45 61 44 45 61 44 45 61 
44 45 61 44 45 61 44 45 61 44 45 61 44 45 61 43 50 67 32 121 158 22 161 200 
22 161 200 20 163 200 20 163 202 20 163 202 18 166 202 18 166 202 19 165 201 12 122 149 
24 38 50 42 43 58 43 48 64 21 139 171 12 173 202 12 174 203 12 174 203 12 175 203 
9 177 203 10 175 201 20 97 117 22 27 33 22 23 28 26 27 35 38 39 53 43 44 59 
44 45 61 44 45 61 44 45 61 44 45 61 43 44 60 40 41 55 34 78 98 9 171 190 
4 186 204 5 178 197 8 97 114 0 0 0 
0 14 20 29 99 147 38 139 198 37 141 198 34 119 155 26 32 42 38 39 53 44 45 61 
44 45 61 44 45 61 44 45 61 44 45 61 44 45 61 44 45 61 44 45 61 44 45 61 
44 45 61 44 45 61 44 45 61 44 45 61 44 45 61 44 45 61 37 96 136 26 156 199 
22 161 200 22 161 200 20 163 200 20 163 200 19 165 201 19 165 201 23 149 182 25 63 86 
22 23 29 39 40 54 34 73 98 18 158 192 13 172 201 12 173 202 12 174 203 12 174 203 
12 175 203 19 142 158 26 32 42 22 23 28 25 29 38 40 41 55 44 45 61 44 45 61 
44 45 61 44 45 61 44 45 61 44 44 60 44 44 60 44 44 60 42 47 62 27 128 148 
4 183 201 4 184 203 2 130 145 0 19 23 
2 44 57 37 119 169 38 140 199 38 140 199 39 108 158 24 38 50 41 42 57 44 45 61 
44 45 61 44 45 61 44 45 61 44 45 61 44 45 61 44 45 61 44 45 61 44 45 61 
44 45 61 44 45 61 44 45 61 44 45 61 44 45 61 44 45 61 43 54 72 26 112 145 
26 146 191 21 160 198 22 161 200 22 161 200 21 154 191 25 130 163 25 63 86 22 21 25 
23 25 32 41 40 55 35 110 137 18 164 200 15 170 201 13 172 201 12 173 202 12 174 203 
11 163 191 25 63 86 22 23 28 26 27 35 40 41 55 44 45 61 44 45 61 44 45 61 
44 45 61 44 44 59 41 67 92 27 107 126 27 128 148 27 107 126 40 64 80 34 78 98 
9 171 190 4 186 204 4 163 179 2 44 57 
10 60 76 40 129 191 40 138 199 38 140 199 37 120 163 24 38 50 42 43 58 44 45 61 
44 45 61 44 45 61 44 45 61 44 45 61 44 45 61 44 45 61 44 45 61 44 45 61 
44 45 61 44 45 61 44 45 61 44 45 61 44 45 61 44 45 61 44 45 61 42 47 62 
25 63 86 20 97 117 20 97 117 20 97 117 19 79 107 15 44 58 22 23 29 22 23 28 
33 34 45 43 45 60 34 119 155 17 167 201 16 169 202 15 170 201 13 171 201 13 171 201 
13 129 151 24 38 50 23 25 32 38 39 53 44 45 61 44 45 61 44 45 61 44 45 61 
41 52 68 35 110 137 12 163 180 5 178 197 4 183 201 5 178 197 14 155 179 34 73 98 
17 149 169 4 186 204 4 174 191 10 78 90 
19 79 107 41 136 197 40 138 199 40 138 199 39 119 174 30 52 68 42 43 58 44 45 61 
44 45 61 44 45 61 44 45 61 44 45 61 44 45 61 44 45 61 43 48 64 43 54 72 
43 51 70 43 48 64 44 45 61 44 45 61 44 45 61 44 45 61 44 45 61 43 44 60 
33 34 45 23 25 32 27 60 78 27 107 126 25 122 154 25 122 154 20 97 117 30 52 68 
42 43 58 43 48 64 34 119 155 17 167 201 16 169 202 16 169 202 15 170 201 13 170 198 
20 97 117 22 21 25 31 32 42 43 44 60 44 45 61 44 45 61 44 44 60 42 57 78 
27 128 148 10 175 201 6 182 204 5 183 204 5 183 204 4 184 204 4 184 203 17 149 169 
27 128 148 4 184 203 4 183 201 8 97 114 
16 91 132 41 136 197 41 137 198 40 138 199 40 129 191 25 63 86 41 42 57 44 45 61 
44 45 61 44 45 61 44 45 61 44 45 61 43 46 63 36 79 113 40 105 149 37 120 163 
37 120 163 40 105 149 38 92 127 43 54 72 44 44 59 44 45 61 44 45 61 44 45 61 
43 44 59 34 73 98 21 139 171 22 161 200 22 161 202 22 161 202 21 160 198 25 130 163 
39 64 86 43 50 67 32 121 158 18 166 202 17 168 202 16 169 202 16 169 202 18 158 192 
27 60 78 23 24 29 40 41 55 44 45 61 44 45 61 44 44 60 40 64 80 19 142 158 
9 177 201 8 179 203 7 180 203 6 182 204 6 182 204 5 183 204 4 184 204 5 180 198 
19 142 158 4 183 201 4 184 203 3 120 136 
28 92 139 42 135 198 41 136 197 41 137 198 39 137 197 36 79 113 40 41 55 44 45 61 
44 45 61 44 45 61 44 45 61 43 50 67 37 96 136 34 140 191 34 145 198 33 147 200 
31 150 199 30 148 198 34 145 198 27 130 170 39 90 114 43 50 67 44 45 61 44 45 61 
43 50 67 34 119 155 26 156 199 24 158 201 22 161 200 22 161 200 22 161 200 22 161 200 
38 92 127 43 46 63 34 119 155 19 165 201 18 166 202 17 168 202 16 169 202 13 148 178 
25 29 38 29 30 39 44 44 60 44 45 61 44 45 61 40 64 80 25 130 163 10 175 201 
9 177 203 8 179 203 8 179 203 7 180 203 6 182 204 6 182 204 5 183 204 4 185 204 
8 176 193 4 183 201 4 186 204 2 130 145 
29 99 147 43 134 198 42 135 198 41 136 197 41 137 198 29 99 147 37 38 52 44 45 61 
44 45 61 44 45 61 43 51 70 40 105 149 35 142 198 35 144 198 33 146 200 33 147 200 
33 147 200 31 150 199 30 148 198 30 148 198 30 148 198 34 119 155 40 64 80 44 45 61 
43 54 72 37 120 163 25 156 201 24 158 201 24 158 201 22 161 200 22 161 200 20 163 202 
26 112 145 42 42 57 38 92 127 21 160 198 18 166 202 18 166 202 17 167 201 21 139 171 
22 21 25 35 36 48 44 45 61 44 45 61 43 54 72 27 128 148 12 173 202 11 176 203 
9 177 203 9 177 203 8 179 203 8 179 203 7 180 203 6 182 204 6 182 204 5 183 204 
4 184 204 4 185 204 4 186 204 2 141 155 
39 110 165 44 133 198 43 134 198 42 135 198 41 136 197 40 127 186 39 64 86 44 44 59 
44 44 60 43 51 70 42 95 138 38 139 192 36 143 199 35 144 198 35 144 198 33 146 200 
33 147 200 29 132 179 23 105 137 27 130 170 31 150 199 31 150 199 32 121 158 42 57 78 
43 51 70 32 121 158 25 156 201 25 156 201 24 158 201 24 158 201 22 161 200 22 161 202 
25 122 154 33 34 45 40 64 80 23 149 182 19 165 201 18 166 202 18 166 202 21 139 171 
22 21 27 39 40 54 44 45 61 43 51 70 27 128 148 13 170 198 12 174 203 12 175 203 
11 176 203 9 177 203 9 177 203 8 179 203 8 179 203 7 180 203 6 182 204 6 182 204 
5 183 204 4 184 204 4 185 204 5 153 169 
39 110 165 44 133 198 44 133 198 43 134 198 42 135 198 41 136 197 37 119 169 40 69 98 
41 67 92 39 108 158 40 135 192 37 141 198 37 141 198 36 143 199 35 144 198 35 144 198 
27 130 170 25 63 86 22 27 33 23 105 137 30 148 198 31 150 199 30 148 198 35 110 137 
43 48 64 35 110 137 27 153 199 25 156 201 25 156 201 24 158 201 24 158 201 22 161 202 
21 139 171 26 32 42 42 42 57 34 119 155 20 163 200 19 165 201 18 166 202 13 148 178 
25 29 38 41 40 55 43 54 72 27 128 148 18 164 200 13 172 201 12 173 202 12 174 203 
12 175 203 11 176 203 10 175 201 9 171 190 9 177 201 8 179 203 7 180 203 6 182 204 
6 182 204 5 183 204 4 184 204 5 153 169 
39 110 165 45 133 198 44 133 198 44 133 198 43 134 198 42 135 198 42 136 198 41 136 197 
41 136 197 40 138 199 40 138 199 38 140 199 37 141 198 37 141 198 35 142 198 37 119 169 
27 60 78 22 23 27 22 21 25 32 95 115 34 145 198 31 150 199 31 150 199 30 142 191 
40 69 98 40 69 98 30 142 191 27 155 201 27 155 201 26 157 201 24 158 201 24 158 201 
21 154 191 27 60 78 41 40 55 40 64 80 27 141 180 20 163 200 19 165 201 21 154 191 
30 52 68 43 54 72 35 110 137 18 164 200 15 170 201 13 171 201 13 172 201 12 173 202 
12 173 202 14 155 179 19 79 107 24 38 50 20 97 117 9 171 190 8 179 203 7 180 203 
6 181 203 6 182 204 5 183 204 5 153 169 
39 110 165 45 133 198 45 133 198 44 133 198 44 133 198 43 134 198 42 135 198 42 136 198 
41 136 197 40 138 199 40 138 199 40 138 199 38 140 199 37 141 198 37 119 169 27 60 78 
22 21 25 22 23 29 31 32 42 39 90 114 34 140 191 31 150 199 31 150 199 31 150 199 
40 105 149 41 40 55 35 110 137 27 153 199 27 155 201 27 155 201 26 157 201 24 158 201 
26 156 199 23 105 137 38 38 51 44 45 61 33 87 101 23 149 182 20 163 200 21 160 198 
25 122 154 25 130 163 18 164 200 16 169 202 16 169 202 15 170 201 13 171 201 13 172 201 
17 149 169 25 63 86 22 21 25 22 23 27 22 21 25 12 122 149 9 177 202 8 179 203 
7 180 203 7 180 203 6 182 204 5 153 169 
29 99 147 45 133 198 45 133 198 45 133 198 44 133 198 44 133 198 43 134 198 42 135 198 
42 136 198 41 136 197 40 138 199 40 138 199 40 138 199 38 128 179 25 63 86 22 23 28 
22 23 29 33 34 45 42 43 58 39 90 114 34 140 191 33 147 200 31 150 199 31 150 199 
27 130 170 38 40 54 42 57 78 27 130 170 27 153 199 27 155 201 27 155 201 26 157 201 
24 158 201 23 149 182 34 78 98 44 45 61 42 47 62 34 73 98 21 139 171 20 163 200 
20 163 200 18 166 202 18 166 202 17 168 202 16 169 202 16 169 202 15 170 201 13 148 178 
25 63 86 22 21 25 22 23 28 29 30 39 38 38 51 40 64 80 11 163 191 8 179 203 
8 179 203 7 180 203 7 180 203 2 141 155 
28 92 139 45 133 198 45 133 198 45 132 197 45 133 198 44 133 198 44 133 198 43 134 198 
42 135 198 42 136 198 41 136 197 40 138 199 38 128 179 27 65 95 22 23 29 23 24 29 
33 34 45 43 44 59 44 44 60 37 96 136 35 142 198 33 146 200 33 147 200 31 150 199 
27 141 180 30 52 68 43 44 59 41 67 92 29 132 179 27 153 199 27 155 201 27 155 201 
26 157 201 25 156 201 25 130 163 40 64 80 44 45 61 39 40 54 33 41 57 23 105 137 
23 149 182 21 160 198 18 164 200 18 166 202 17 167 201 17 163 191 19 142 158 27 60 78 
22 23 28 23 24 29 33 34 45 42 43 58 44 45 61 41 52 68 17 149 169 9 177 203 
8 179 203 8 179 203 8 179 203 2 130 145 
16 91 132 45 132 197 44 131 195 39 119 174 45 133 198 45 133 198 45 133 198 44 133 198 
43 134 198 43 134 198 42 136 198 39 121 178 34 73 98 22 17 21 22 23 28 31 32 42 
42 43 58 44 45 61 43 48 64 40 105 149 35 142 198 34 145 198 33 147 200 33 147 200 
30 142 191 25 63 86 41 42 57 42 43 58 34 73 98 27 130 170 27 153 199 27 155 201 
27 155 201 26 157 201 26 156 199 34 119 155 43 54 72 44 44 60 38 38 51 25 23 30 
30 52 68 20 97 117 26 112 145 25 122 154 12 122 149 20 97 117 24 38 50 22 21 25 
23 24 29 31 32 42 42 43 58 44 45 61 44 45 61 43 48 64 27 128 148 9 177 203 
9 177 203 8 179 203 7 178 201 9 107 131 
19 79 107 44 131 195 44 131 195 38 92 127 43 122 182 45 133 198 45 133 198 45 133 198 
44 133 198 42 133 196 39 110 165 25 63 86 22 23 29 22 23 28 31 32 42 42 43 58 
44 45 61 44 45 61 42 57 78 37 119 169 36 143 199 35 144 198 34 145 198 33 146 200 
34 140 191 27 60 78 39 40 54 44 45 61 41 40 55 30 52 68 23 105 137 26 146 191 
27 155 201 27 155 201 25 156 201 26 156 199 32 121 158 43 54 72 44 45 61 41 42 57 
31 32 42 23 25 32 25 29 38 26 32 42 25 29 38 22 23 28 22 23 28 23 24 29 
33 34 45 42 43 58 44 45 61 44 45 61 44 45 61 44 45 62 27 107 126 11 176 203 
11 176 203 9 177 203 9 177 201 8 97 114 
10 60 76 43 125 186 45 132 197 37 96 136 36 79 113 39 121 178 44 129 191 44 129 191 
43 122 182 40 105 149 33 41 57 22 23 29 22 23 29 29 30 39 42 43 58 44 45 61 
44 45 61 44 45 61 40 69 98 40 135 192 36 143 199 36 143 199 35 144 198 34 145 198 
29 132 179 24 38 50 35 36 48 44 45 61 44 45 61 40 41 55 26 32 42 25 63 86 
25 122 154 27 141 180 27 153 199 26 156 199 26 156 199 34 119 155 40 64 80 44 45 61 
44 44 60 40 41 55 31 32 42 25 29 38 26 27 35 26 27 35 29 30 39 38 39 53 
44 44 60 44 45 61 44 45 61 44 45 61 44 45 61 44 45 61 39 90 114 12 173 202 
11 176 203 11 176 203 9 171 190 10 78 90 
2 44 57 39 110 165 45 133 198 37 119 169 30 29 39 30 52 68 36 79 113 36 79 113 
25 63 86 23 25 32 22 21 25 23 24 29 31 32 42 41 42 57 44 45 61 44 45 61 
44 45 61 43 48 64 39 108 158 38 140 199 37 141 198 36 143 199 36 143 199 35 144 198 
27 130 170 23 25 32 35 36 48 44 45 61 44 45 61 44 45 61 41 42 57 30 29 39 
22 27 33 25 63 86 20 97 117 26 112 145 25 122 154 27 130 170 35 110 137 43 50 67 
44 45 61 44 45 61 44 45 61 42 43 58 41 42 57 41 42 57 43 44 59 44 45 61 
44 45 61 44 45 61 44 45 61 44 45 61 44 45 61 44 45 61 39 90 114 13 170 198 
12 174 203 11 176 203 5 153 169 2 44 57 
0 14 20 28 92 139 45 132 197 43 125 186 40 69 98 35 36 48 23 24 29 22 21 25 
22 21 27 22 23 28 23 25 32 35 36 48 42 43 58 44 45 61 44 45 61 44 45 61 
44 44 59 36 79 113 40 135 192 38 140 199 38 140 199 37 141 198 36 143 199 36 143 199 
29 99 147 22 17 21 38 39 53 44 45 61 44 45 61 44 45 61 44 45 61 42 43 58 
38 39 53 26 27 35 22 21 25 22 23 29 24 38 50 30 52 68 27 60 78 43 46 63 
44 45 61 44 45 61 44 45 61 44 45 61 44 45 61 44 45 61 44 45 61 44 45 61 
44 45 61 44 45 61 44 45 61 44 45 61 44 45 61 44 45 61 39 90 114 13 170 198 
12 173 202 13 172 201 2 130 145 0 14 20 
0 0 0 19 79 107 44 129 191 45 132 197 39 108 158 43 54 72 40 41 55 31 32 42 
29 30 39 33 34 45 40 41 55 44 45 61 44 45 61 44 45 61 44 45 61 44 45 61 
41 67 92 39 121 178 40 138 199 40 138 199 38 140 199 38 140 199 37 141 198 37 141 198 
34 73 98 22 21 25 40 41 55 44 45 61 44 45 61 44 45 61 44 45 61 44 45 61 
44 45 61 43 44 60 38 39 53 31 32 42 26 27 35 25 26 33 23 25 32 31 32 42 
43 44 59 44 45 61 44 45 61 44 45 61 44 45 61 44 45 61 44 45 61 44 45 61 
44 45 61 44 45 61 44 45 61 44 45 61 44 45 61 44 45 61 39 90 114 15 170 201 
12 173 202 13 170 198 8 97 114 0 0 0 
0 0 0 11 46 65 39 121 178 45 133 198 44 129 191 42 95 138 44 45 62 44 45 61 
44 44 60 44 45 61 44 45 61 44 45 61 44 45 61 44 45 61 44 44 60 39 64 86 
39 110 165 41 136 197 41 137 198 40 138 199 40 138 199 38 140 199 38 140 199 37 119 169 
26 32 42 26 27 35 42 43 58 44 45 61 44 45 61 44 45 61 44 45 61 44 45 61 
44 45 61 44 45 61 44 45 61 44 45 61 43 44 59 40 41 55 38 39 53 38 38 51 
42 42 57 44 45 61 44 45 61 44 45 61 44 45 61 44 45 61 44 45 61 44 45 61 
44 45 61 44 45 61 44 45 61 44 45 61 44 45 61 44 45 62 32 95 115 15 170 201 
13 172 201 14 155 179 0 59 68 0 0 0 
0 0 0 0 0 0 28 92 139 45 132 197 45 133 198 44 129 191 42 95 138 43 51 70 
44 45 61 44 45 61 44 45 61 44 45 61 44 45 61 44 45 62 40 69 98 39 119 174 
42 133 196 42 135 198 42 136 198 41 137 198 40 138 199 40 138 199 39 137 197 36 79 113 
22 23 29 31 32 42 43 44 60 44 45 61 44 45 61 44 45 61 44 45 61 44 45 61 
44 45 61 44 45 61 44 45 61 44 45 61 44 45 61 44 45 61 44 45 61 44 45 61 
44 45 61 44 45 61 44 45 61 44 45 61 44 45 61 44 45 61 44 45 61 44 45 61 
44 45 61 44 45 61 44 45 61 44 45 61 44 45 61 43 48 64 27 128 148 15 170 201 
15 170 201 12 122 149 0 0 0 0 0 0 
0 0 0 0 0 0 11 46 65 43 125 186 45 133 198 45 133 198 44 131 195 39 108 158 
40 69 98 39 64 86 39 64 86 39 64 86 40 69 98 42 95 138 43 125 186 44 133 198 
44 133 198 43 134 198 42 135 198 42 136 198 41 137 198 40 138 199 37 119 169 30 52 68 
23 24 29 35 36 48 44 45 61 44 45 61 44 45 61 44 45 61 44 45 61 44 45 61 
44 45 61 44 45 61 44 45 61 44 45 61 44 45 61 44 45 61 44 45 61 44 45 61 
44 45 61 44 45 61 44 45 61 44 45 61 44 45 61 44 45 61 44 45 61 44 45 61 
44 45 61 44 45 61 44 45 61 44 45 61 44 44 60 39 64 86 23 149 182 16 169 202 
11 163 191 0 59 68 0 0 0 0 0 0 
0 0 0 0 0 0 0 8 15 29 99 147 45 133 198 45 133 198 45 133 198 45 133 198 
44 129 191 43 122 182 39 119 174 43 122 182 43 125 186 45 133 198 45 133 198 45 133 198 
45 133 198 44 133 198 43 134 198 42 135 198 42 135 198 40 127 186 34 73 98 22 21 27 
26 27 35 42 43 58 44 45 61 44 45 61 44 45 61 44 45 61 44 45 61 44 45 61 
44 45 61 44 45 61 44 45 61 44 45 61 44 45 61 44 45 61 44 45 61 44 45 61 
44 45 61 44 45 61 44 45 61 44 45 61 44 45 61 44 45 61 44 45 61 44 45 61 
44 45 61 44 45 61 44 45 61 44 45 61 43 46 63 25 122 154 18 166 202 17 168 202 
12 122 149 0 14 20 0 0 0 0 0 0 
0 0 0 0 0 0 0 0 0 10 60 76 39 121 178 45 133 198 45 133 198 45 133 198 
45 133 198 45 133 198 45 133 198 45 133 198 45 133 198 45 133 198 45 133 198 45 133 198 
45 133 198 45 133 198 44 133 198 43 134 198 42 133 196 38 92 127 22 27 33 22 23 28 
35 36 48 44 45 61 44 45 61 44 45 61 44 45 61 44 45 61 44 45 61 44 45 61 
44 45 61 44 45 61 44 45 61 44 45 61 44 45 61 44 45 61 44 45 61 44 45 61 
44 45 61 44 45 61 44 45 61 44 45 61 44 45 61 44 45 61 44 45 61 44 45 61 
44 45 61 44 45 61 44 45 61 44 45 61 39 90 114 21 154 191 18 166 202 14 155 179 
10 60 76 0 0 0 0 0 0 0 0 0 
0 0 0 0 0 0 0 0 0 0 14 20 28 92 139 44 131 195 45 133 198 45 133 198 
45 133 198 45 133 198 45 133 198 45 133 198 45 133 198 45 133 198 45 133 198 45 133 198 
45 133 198 45 133 198 45 133 198 44 129 191 37 96 136 25 29 38 22 23 28 29 30 39 
42 43 58 44 45 61 44 45 61 44 45 61 44 45 61 44 45 61 44 45 61 44 45 61 
44 45 61 44 45 61 44 45 61 44 45 61 44 45 61 44 45 61 44 45 61 44 45 61 
44 45 61 44 45 61 44 45 61 44 45 61 44 45 61 44 45 61 44 45 61 44 45 61 
44 45 61 44 45 61 44 45 61 40 64 80 27 130 170 20 163 200 18 164 200 11 118 135 
0 19 23 0 0 0 0 0 0 0 0 0 
0 0 0 0 0 0 0 0 0 0 0 0 2 38 46 39 110 165 45 133 198 45 133 198 
45 133 198 45 133 198 45 133 198 45 133 198 45 133 198 45 133 198 45 133 198 45 133 198 
45 133 198 45 133 198 43 125 186 38 92 127 26 32 42 22 23 28 26 27 35 40 41 55 
44 45 61 44 45 61 44 45 61 44 45 61 44 45 61 44 45 61 44 45 61 44 45 61 
44 45 61 44 45 61 44 45 61 44 45 61 44 45 61 44 45 61 44 45 61 44 45 61 
44 45 61 44 45 61 44 45 61 44 45 61 44 45 61 44 45 61 44 45 61 44 45 61 
44 45 61 44 45 61 43 48 64 34 119 155 21 160 198 20 163 200 21 139 171 2 44 57 
0 0 0 0 0 0 0 0 0 0 0 0 
0 0 0 0 0 0 0 0 0 0 0 0 0 0 0 13 62 94 43 125 186 45 133 198 
45 133 198 45 133 198 45 133 198 45 133 198 45 133 198 45 133 198 45 133 198 45 133 198 
44 131 195 39 119 174 27 65 95 26 32 42 22 23 28 25 26 33 37 38 52 43 44 60 
44 45 61 44 45 61 44 45 61 44 45 61 44 45 61 44 45 61 44 45 61 44 45 61 
44 45 61 44 45 61 44 45 61 44 45 61 44 45 61 44 45 61 44 45 61 44 45 61 
44 45 61 44 45 61 44 45 61 44 45 61 44 45 61 44 45 61 44 45 61 44 45 61 
44 45 61 44 45 62 35 110 137 21 154 191 22 161 200 21 154 191 10 78 90 0 0 0 
0 0 0 0 0 0 0 0 0 0 0 0 
0 0 0 0 0 0 0 0 0 0 0 0 0 0 0 0 4 7 19 79 107 44 129 191 
45 133 198 45 133 198 44 129 191 43 125 186 43 125 186 43 125 186 43 122 182 39 108 158 
36 79 113 24 38 50 22 23 29 22 23 28 25 26 33 37 38 52 44 45 61 44 45 61 
44 45 61 44 45 61 44 45 61 44 45 61 44 45 61 44 45 61 44 45 61 44 45 61 
44 45 61 44 45 61 44 45 61 44 45 61 44 45 61 44 45 61 44 45 61 44 45 61 
44 45 61 44 45 61 44 45 61 44 45 61 44 45 61 44 45 61 44 45 61 44 45 61 
43 48 64 38 92 127 26 146 191 24 158 201 21 154 191 8 97 114 0 4 7 0 0 0 
0 0 0 0 0 0 0 0 0 0 0 0 
0 0 0 0 0 0 0 0 0 0 0 0 0 0 0 0 0 0 3 23 41 28 92 139 
43 130 191 45 133 198 43 122 182 36 79 113 27 65 95 27 60 78 33 41 57 22 21 23 
22 21 23 22 23 27 22 23 29 29 30 39 39 40 54 44 45 61 44 45 61 44 45 61 
44 45 61 44 45 61 44 45 61 44 45 61 44 45 61 44 45 61 44 45 61 44 45 61 
44 45 61 44 45 61 44 45 61 44 45 61 44 45 61 44 45 61 44 45 61 44 45 61 
44 45 61 44 45 61 44 45 61 44 45 61 44 45 61 44 45 61 44 45 61 44 45 62 
38 92 127 26 146 191 25 156 201 26 156 199 11 118 135 1 30 42 0 0 0 0 0 0 
0 0 0 0 0 0 0 0 0 0 0 0 
0 0 0 0 0 0 0 0 0 0 0 0 0 0 0 0 0 0 0 0 0 1 30 42 
29 99 147 45 132 197 45 132 197 39 121 178 27 65 95 22 21 23 22 23 28 22 23 28 
23 24 29 29 30 39 38 38 51 42 43 58 44 45 61 44 45 61 44 45 61 44 45 61 
44 45 61 44 45 61 44 45 61 44 45 61 44 45 61 44 45 61 44 45 61 44 45 61 
44 45 61 44 45 61 44 45 61 44 45 61 44 45 61 44 45 61 44 45 61 44 45 61 
44 45 61 44 45 61 44 45 61 44 45 61 44 45 61 44 45 61 43 48 64 37 96 136 
26 146 191 27 155 201 26 156 199 12 122 149 2 38 46 0 0 0 0 0 0 0 0 0 
0 0 0 0 0 0 0 0 0 0 0 0 
0 0 0 0 0 0 0 0 0 0 0 0 0 0 0 0 0 0 0 0 0 0 0 0 
3 23 41 29 99 147 43 130 191 45 133 198 43 125 186 38 92 127 30 52 68 35 36 48 
40 41 55 43 44 60 44 45 61 44 45 61 44 45 61 44 45 61 44 45 61 44 45 61 
44 45 61 44 45 61 44 45 61 44 45 61 44 45 61 44 45 61 44 45 61 44 45 61 
44 45 61 44 45 61 44 45 61 44 45 61 44 45 61 44 45 61 44 45 61 44 45 61 
44 45 61 44 45 61 44 45 61 44 45 61 44 44 60 40 64 80 40 105 149 26 146 191 
27 153 199 27 153 199 12 122 149 1 30 42 0 0 0 0 0 0 0 0 0 0 0 0 
0 0 0 0 0 0 0 0 0 0 0 0 
0 0 0 0 0 0 0 0 0 0 0 0 0 0 0 0 0 0 0 0 0 0 0 0 
0 0 0 1 30 42 28 92 139 44 129 191 45 133 198 44 129 191 39 108 158 40 69 98 
44 44 60 44 45 61 44 45 61 44 45 61 44 45 61 44 45 61 44 45 61 44 45 61 
44 45 61 44 45 61 44 45 61 44 45 61 44 45 61 44 45 61 44 45 61 44 45 61 
44 45 61 44 45 61 44 45 61 44 45 61 44 45 61 44 45 61 44 45 61 44 45 61 
44 45 61 44 45 61 44 44 60 43 46 63 36 79 113 37 119 169 30 148 198 27 153 199 
26 146 191 23 105 137 2 38 46 0 0 0 0 0 0 0 0 0 0 0 0 0 0 0 
0 0 0 0 0 0 0 0 0 0 0 0 
0 0 0 0 0 0 0 0 0 0 0 0 0 0 0 0 0 0 0 0 0 0 0 0 
0 0 0 0 0 0 3 23 41 19 79 107 43 125 186 45 133 198 45 132 197 43 122 182 
42 95 138 42 57 78 44 45 62 44 45 61 44 45 61 44 45 61 44 45 61 44 45 61 
44 45 61 44 45 61 44 45 61 44 45 61 44 45 61 44 45 61 44 45 61 44 45 61 
44 45 61 44 45 61 44 45 61 44 45 61 44 45 61 44 45 61 44 45 61 44 45 61 
44 45 61 43 46 63 39 64 86 40 105 149 34 140 191 31 150 199 31 150 199 30 142 191 
20 97 117 1 30 42 0 0 0 0 0 0 0 0 0 0 0 0 0 0 0 0 0 0 
0 0 0 0 0 0 0 0 0 0 0 0 
0 0 0 0 0 0 0 0 0 0 0 0 0 0 0 0 0 0 0 0 0 0 0 0 
0 0 0 0 0 0 0 0 0 0 4 7 13 62 94 39 110 165 44 131 195 45 133 198 
45 132 197 39 119 174 38 92 127 39 64 86 43 50 67 44 44 60 44 45 61 44 45 61 
44 45 61 44 45 61 44 45 61 44 45 61 44 45 61 44 45 61 44 45 61 44 45 61 
44 45 61 44 45 61 44 45 61 44 45 61 44 45 61 44 45 61 44 45 61 43 51 70 
41 67 92 42 95 138 38 128 179 34 145 198 33 147 200 34 145 198 27 130 170 13 62 94 
0 4 7 0 0 0 0 0 0 0 0 0 0 0 0 0 0 0 0 0 0 0 0 0 
0 0 0 0 0 0 0 0 0 0 0 0 
0 0 0 0 0 0 0 0 0 0 0 0 0 0 0 0 0 0 0 0 0 0 0 0 
0 0 0 0 0 0 0 0 0 0 0 0 0 0 0 2 38 46 28 92 139 39 121 178 
45 133 198 45 133 198 45 132 197 43 122 182 40 105 149 38 92 127 42 57 78 44 42 58 
44 42 58 44 44 59 44 44 60 44 45 61 44 45 61 44 45 61 44 45 61 44 45 61 
44 44 60 44 44 60 44 44 59 44 42 58 43 44 60 41 67 92 38 92 127 39 108 158 
40 127 186 36 143 199 35 144 198 34 145 198 29 132 179 16 91 132 2 38 46 0 0 0 
0 0 0 0 0 0 0 0 0 0 0 0 0 0 0 0 0 0 0 0 0 0 0 0 
0 0 0 0 0 0 0 0 0 0 0 0 
0 0 0 0 0 0 0 0 0 0 0 0 0 0 0 0 0 0 0 0 0 0 0 0 
0 0 0 0 0 0 0 0 0 0 0 0 0 0 0 0 0 0 0 14 20 10 60 76 
29 99 147 43 125 186 45 132 197 45 133 198 45 132 197 44 129 191 43 122 182 39 110 165 
42 95 138 36 79 113 41 67 92 42 57 78 43 54 72 43 54 72 43 54 72 43 54 72 
42 57 78 40 69 98 36 79 113 42 95 138 37 119 169 40 127 186 40 135 192 38 140 199 
37 141 198 37 141 198 29 132 179 23 105 137 10 60 76 0 14 20 0 0 0 0 0 0 
0 0 0 0 0 0 0 0 0 0 0 0 0 0 0 0 0 0 0 0 0 0 0 0 
0 0 0 0 0 0 0 0 0 0 0 0 
0 0 0 0 0 0 0 0 0 0 0 0 0 0 0 0 0 0 0 0 0 0 0 0 
0 0 0 0 0 0 0 0 0 0 0 0 0 0 0 0 0 0 0 0 0 0 0 0 
0 8 15 11 46 65 28 92 139 39 121 178 44 129 191 45 132 197 45 133 198 45 133 198 
45 132 197 44 131 195 44 129 191 43 125 186 43 125 186 43 125 186 43 125 186 43 125 186 
44 129 191 43 130 191 42 133 196 41 136 197 41 137 198 40 138 199 39 137 197 40 135 192 
38 128 179 28 92 139 11 46 65 0 8 15 0 0 0 0 0 0 0 0 0 0 0 0 
0 0 0 0 0 0 0 0 0 0 0 0 0 0 0 0 0 0 0 0 0 0 0 0 
0 0 0 0 0 0 0 0 0 0 0 0 
0 0 0 0 0 0 0 0 0 0 0 0 0 0 0 0 0 0 0 0 0 0 0 0 
0 0 0 0 0 0 0 0 0 0 0 0 0 0 0 0 0 0 0 0 0 0 0 0 
0 0 0 0 0 0 0 0 0 11 46 65 19 79 107 28 92 139 39 110 165 43 125 186 
44 131 195 45 132 197 45 133 198 45 133 198 45 133 198 45 133 198 45 133 198 45 133 198 
45 133 198 44 133 198 43 134 198 42 133 196 40 127 186 37 119 169 29 99 147 19 79 107 
2 44 57 0 0 0 0 0 0 0 0 0 0 0 0 0 0 0 0 0 0 0 0 0 
0 0 0 0 0 0 0 0 0 0 0 0 0 0 0 0 0 0 0 0 0 0 0 0 
0 0 0 0 0 0 0 0 0 0 0 0 
0 0 0 0 0 0 0 0 0 0 0 0 0 0 0 0 0 0 0 0 0 0 0 0 
0 0 0 0 0 0 0 0 0 0 0 0 0 0 0 0 0 0 0 0 0 0 0 0 
0 0 0 0 0 0 0 0 0 0 0 0 0 0 0 0 14 20 2 44 57 10 60 76 
19 79 107 16 91 132 28 92 139 29 99 147 39 110 165 39 110 165 39 110 165 39 110 165 
29 99 147 28 92 139 16 91 132 19 79 107 10 60 76 2 44 57 0 14 20 0 0 0 
0 0 0 0 0 0 0 0 0 0 0 0 0 0 0 0 0 0 0 0 0 0 0 0 
0 0 0 0 0 0 0 0 0 0 0 0 0 0 0 0 0 0 0 0 0 0 0 0 
0 0 0 0 0 0 0 0 0 0 0 0 
